<svg xmlns="http://www.w3.org/2000/svg" xmlns:xlink="http://www.w3.org/1999/xlink" viewBox="0 0 64 64" fill="#FFFFFF">
  <path d="M32 3C16.01 3 3 16.009 3 32C3 47.991 16.01 61 32 61C47.99 61 61 47.991 61 32C61 16.009 47.99 3 32 3 z M 32 5C46.888 5 59 17.112 59 32C59 46.888 46.888 59 32 59C17.112 59 5 46.888 5 32C5 17.112 17.112 5 32 5 z M 32 9C19.317 9 9 19.318 9 32C9 32.552 9.447 33 10 33C10.553 33 11 32.552 11 32C11 20.42 20.421 11 32 11C43.579 11 53 20.42 53 32C53 43.58 43.579 53 32 53C31.447 53 31 53.448 31 54C31 54.552 31.447 55 32 55C44.683 55 55 44.682 55 32C55 19.318 44.683 9 32 9 z M 41.367188 20.025391C40.982813 19.987891 40.561266 20.05125 40.134766 20.21875C39.398766 20.50975 19.395375 28.943344 18.609375 29.277344C17.787375 29.557344 16.877719 30.263078 17.011719 31.330078C17.163719 32.542078 18.429891 33.024078 18.587891 33.080078L23.462891 34.722656C23.871891 36.063656 24.992906 39.735641 25.253906 40.556641C25.383906 40.969641 25.713609 42.008187 26.474609 42.242188C27.056609 42.453188 27.633484 42.252172 28.021484 41.951172L30.869141 39.355469L35.605469 42.986328L35.814453 43.109375C36.245453 43.297375 36.630938 43.365234 36.960938 43.365234C37.312938 43.365234 37.602312 43.288219 37.820312 43.199219C38.729312 42.826219 39.093812 41.972953 39.132812 41.876953L42.900391 22.658203C43.176391 21.430203 42.767 20.7725 42.375 20.4375C42.099 20.202 41.751562 20.062891 41.367188 20.025391 z M 40.982422 22.039062C40.975422 22.096063 40.964312 22.165047 40.945312 22.248047L37.251953 41.173828C37.214953 41.226828 37.146453 41.315609 37.064453 41.349609C36.965453 41.388609 36.823891 41.356406 36.712891 41.316406L30.757812 36.748047L27.185547 40.011719L27.939453 35.214844C27.939453 35.214844 37.19575 26.586844 37.59375 26.214844C37.99175 25.843844 37.859375 25.763672 37.859375 25.763672C37.886375 25.312672 37.257812 25.634766 37.257812 25.634766L25.080078 33.175781L25.074219 33.154297L19.253906 31.195312C19.244906 31.191312 19.234609 31.187594 19.224609 31.183594C19.256609 31.169594 19.289266 31.156531 19.322266 31.144531C26.517266 28.110531 40.270187 22.314125 40.867188 22.078125C40.908187 22.061125 40.947422 22.049063 40.982422 22.039062 z M 12.003906 37.035156C11.874734 37.021094 11.739672 37.031766 11.607422 37.072266L9.6914062 37.646484C9.1624063 37.805484 8.8634844 38.361625 9.0214844 38.890625C9.1514844 39.324625 9.5475156 39.605469 9.9785156 39.605469C10.072516 39.605469 10.169625 39.5915 10.265625 39.5625L12.181641 38.988281C12.710641 38.829281 13.011516 38.270187 12.853516 37.742188C12.735016 37.346188 12.391422 37.077344 12.003906 37.035156 z M 13.828125 41.761719C13.699656 41.779719 13.573078 41.823531 13.455078 41.894531L11.738281 42.921875C11.263281 43.205875 11.109578 43.818969 11.392578 44.292969C11.579578 44.605969 11.910953 44.779297 12.251953 44.779297C12.426953 44.779297 12.603672 44.735672 12.763672 44.638672L14.480469 43.611328C14.955469 43.327328 15.109172 42.714234 14.826172 42.240234C14.613172 41.884734 14.213531 41.707719 13.828125 41.761719 z M 17.134766 45.832031C16.879016 45.831531 16.623234 45.927547 16.427734 46.123047L15.011719 47.537109C14.619719 47.927109 14.619766 48.560172 15.009766 48.951172C15.204766 49.147172 15.46175 49.244141 15.71875 49.244141C15.97475 49.244141 16.228828 49.147125 16.423828 48.953125L17.839844 47.539062C18.231844 47.149063 18.231797 46.517953 17.841797 46.126953C17.646297 45.931453 17.390516 45.832531 17.134766 45.832031 z M 21.34375 49.017578C20.957781 48.962594 20.558703 49.136688 20.345703 49.492188L19.316406 51.207031C19.032406 51.681031 19.184203 52.294125 19.658203 52.578125C19.819203 52.675125 19.997828 52.722656 20.173828 52.722656C20.513828 52.722656 20.84425 52.548328 21.03125 52.236328L22.060547 50.523438C22.344547 50.049437 22.19275 49.434391 21.71875 49.150391C21.60025 49.079141 21.472406 49.035906 21.34375 49.017578 z M 25.816406 51.097656C25.428703 51.139422 25.086047 51.406734 24.966797 51.802734L24.388672 53.716797C24.228672 54.245797 24.528641 54.804844 25.056641 54.964844C25.153641 54.993844 25.249703 55.007812 25.345703 55.007812C25.774703 55.007813 26.172734 54.728875 26.302734 54.296875L26.880859 52.380859C27.040859 51.851859 26.740891 51.294766 26.212891 51.134766C26.080391 51.095016 25.945641 51.083734 25.816406 51.097656 z" fill="#FFFFFF" />
</svg>